<svg id="Layer_1" data-name="Layer 1" xmlns="http://www.w3.org/2000/svg" viewBox="0 0 512 496.83"><defs><style>.cls-1{fill:#b7b7b7;}.cls-2{fill:#fff;}</style></defs><title>cake</title><path class="cls-1" d="M121.88,430.83a10.35,10.35,0,0,1-10.35-10.35v-.24a10.35,10.35,0,1,1,20.71,0v.24A10.35,10.35,0,0,1,121.88,430.83Z" transform="translate(0 -7.58)"/><path class="cls-1" d="M121.88,397.09a10.35,10.35,0,0,1-10.35-10.35V327.23a10.35,10.35,0,0,1,20.71,0v59.51A10.35,10.35,0,0,1,121.88,397.09Z" transform="translate(0 -7.58)"/><path class="cls-1" d="M191.84,430.83a10.35,10.35,0,0,1-10.35-10.35v-.24a10.35,10.35,0,1,1,20.71,0v.24A10.35,10.35,0,0,1,191.84,430.83Z" transform="translate(0 -7.58)"/><path class="cls-1" d="M191.84,397.09a10.35,10.35,0,0,1-10.35-10.35V327.23a10.35,10.35,0,0,1,20.71,0v59.51A10.35,10.35,0,0,1,191.84,397.09Z" transform="translate(0 -7.58)"/><path class="cls-1" d="M258.33,430.83A10.35,10.35,0,0,1,248,420.48v-.24a10.35,10.35,0,1,1,20.71,0v.24A10.35,10.35,0,0,1,258.33,430.83Z" transform="translate(0 -7.58)"/><path class="cls-1" d="M258.33,397.09A10.35,10.35,0,0,1,248,386.74V327.23a10.35,10.35,0,0,1,20.71,0v59.51A10.35,10.35,0,0,1,258.33,397.09Z" transform="translate(0 -7.58)"/><path class="cls-1" d="M324.82,430.83a10.35,10.35,0,0,1-10.35-10.35v-.24a10.35,10.35,0,1,1,20.71,0v.24A10.35,10.35,0,0,1,324.82,430.83Z" transform="translate(0 -7.58)"/><path class="cls-1" d="M324.82,397.09a10.35,10.35,0,0,1-10.35-10.35V327.23a10.35,10.35,0,0,1,20.71,0v59.51A10.35,10.35,0,0,1,324.82,397.09Z" transform="translate(0 -7.58)"/><path class="cls-1" d="M394.78,430.83a10.35,10.35,0,0,1-10.35-10.35v-.24a10.35,10.35,0,1,1,20.71,0v.24A10.35,10.35,0,0,1,394.78,430.83Z" transform="translate(0 -7.58)"/><path class="cls-1" d="M394.78,397.09a10.35,10.35,0,0,1-10.35-10.35V327.23a10.35,10.35,0,0,1,20.71,0v59.51A10.35,10.35,0,0,1,394.78,397.09Z" transform="translate(0 -7.58)"/><path class="cls-2" d="M501.65,444.5h-29A51.5,51.5,0,0,0,483,413.44V274.19a51.85,51.85,0,0,0-34.18-48.69,32.12,32.12,0,1,0-58.68-3.08H364.6a32.13,32.13,0,1,0-60,0H285.78V115.31a43.42,43.42,0,0,0,16-33.7c0-21.28-11.19-53-42.71-72.49a10.35,10.35,0,0,0-15.58,6.72c-3,14.52-9.9,25.11-16,34.45-6.53,10-12.7,19.47-12.7,31.31a43.42,43.42,0,0,0,16,33.7v107.1H212.1a32.13,32.13,0,1,0-60,0H126.52a32.13,32.13,0,1,0-58.68,3.08,51.86,51.86,0,0,0-34.18,48.69V413.44A51.5,51.5,0,0,0,44,444.5H10.35A10.35,10.35,0,0,0,0,454.85v39.21a10.35,10.35,0,0,0,10.35,10.35H501.65A10.35,10.35,0,0,0,512,494.06V454.85A10.35,10.35,0,0,0,501.65,444.5ZM408.74,211a11.42,11.42,0,1,1,11.42,11.42A11.43,11.43,0,0,1,408.74,211Zm-85.59,0a11.42,11.42,0,1,1,11.42,11.42A11.43,11.43,0,0,1,323.16,211ZM244.89,61.61c4.72-7.24,10.25-15.72,14.44-26.46,16.9,15.63,21.78,35.68,21.78,46.46a22.78,22.78,0,0,1-45.56,0C235.55,75.92,239.67,69.61,244.89,61.61Zm6.71,63.49h13.48v97.32H251.59V125.1ZM170.66,211a11.42,11.42,0,1,1,11.42,11.42A11.43,11.43,0,0,1,170.66,211ZM96.5,199.58A11.42,11.42,0,1,1,85.08,211,11.43,11.43,0,0,1,96.5,199.58ZM85.43,243.13h345.8a31.1,31.1,0,0,1,31.06,31.06v8.25a37.28,37.28,0,0,1-18-11.24,10.35,10.35,0,0,0-15.51,0,37.18,37.18,0,0,1-55.77,0,10.35,10.35,0,0,0-15.51,0,37.18,37.18,0,0,1-55.77,0,10.35,10.35,0,0,0-15.51,0,37.18,37.18,0,0,1-55.77,0,10.35,10.35,0,0,0-15.51,0,37.18,37.18,0,0,1-55.77,0,10.35,10.35,0,0,0-15.51,0,37.18,37.18,0,0,1-55.77,0,10.35,10.35,0,0,0-15.51,0,37.29,37.29,0,0,1-18,11.24v-8.25A31.1,31.1,0,0,1,85.43,243.13ZM54.37,413.44V303.64a58,58,0,0,0,25.75-11.42,57.86,57.86,0,0,0,71.28,0,57.86,57.86,0,0,0,71.28,0,57.86,57.86,0,0,0,71.29,0,57.86,57.86,0,0,0,71.28,0,57.86,57.86,0,0,0,71.28,0,58,58,0,0,0,25.75,11.42v109.8a31.1,31.1,0,0,1-31.06,31.06H85.43A31.1,31.1,0,0,1,54.37,413.44Zm436.92,70.27H20.71v-18.5H491.29Z" transform="translate(0 -7.58)"/></svg>