<svg id="Ebene_1" data-name="Ebene 1" xmlns="http://www.w3.org/2000/svg" viewBox="0 0 21.62 19.15"><defs><style>.cls-1{fill:#333;}</style></defs><title>home</title><path class="cls-1" d="M411.94,306.95a.45.45,0,0,0,.45.48h5.45V303a.64.64,0,0,1,.64-.73h2.26a.7.7,0,0,1,.79.73v4.45h5.33a.56.56,0,0,0,.57-.6v-8.23l-7.52-6.68-8,6.68Zm0,0" transform="translate(-409 -288.28)"/><path class="cls-1" d="M409,298s.68,1.25,2.16,0l8.83-7.47,8.28,7.42c1.71,1.23,2.35,0,2.35,0L420,288.28Zm0,0" transform="translate(-409 -288.28)"/><path class="cls-1" d="M428.06,290.47h-2.13v2.58l2.12,1.8Zm0,0" transform="translate(-409 -288.28)"/></svg>